<?xml version="1.0" encoding="UTF-8" standalone="no"?>
<!DOCTYPE svg PUBLIC "-//W3C//DTD SVG 1.1//EN" "http://www.w3.org/Graphics/SVG/1.1/DTD/svg11.dtd">
<svg width="100%" height="100%" viewBox="0 0 512 512" version="1.1" xmlns="http://www.w3.org/2000/svg" xmlns:xlink="http://www.w3.org/1999/xlink" xml:space="preserve" xmlns:serif="http://www.serif.com/" style="fill-rule:evenodd;clip-rule:evenodd;stroke-linejoin:round;stroke-miterlimit:1.41421;">
    <g>
        <path d="M370.701,0L141.29,0C63.383,0 0,63.386 0,141.293L0,370.704C0,448.614 63.383,511.997 141.29,511.997L370.701,511.997C448.614,511.997 511.997,448.611 511.997,370.704L511.997,141.293C512,63.386 448.614,0 370.701,0ZM466.573,370.704C466.573,423.566 423.566,466.57 370.704,466.57L141.29,466.57C88.431,466.573 45.427,423.566 45.427,370.704L45.427,141.293C45.427,88.434 88.431,45.427 141.29,45.427L370.701,45.427C423.563,45.427 466.57,88.434 466.57,141.293L466.57,370.704L466.573,370.704Z" style="fill:rgb(98,159,244);fill-rule:nonzero;"/>
        <path d="M255.998,124.076C183.252,124.076 124.07,183.258 124.07,256.005C124.07,328.748 183.252,387.927 255.998,387.927C328.745,387.927 387.927,328.748 387.927,256.005C387.927,183.258 328.745,124.076 255.998,124.076ZM255.998,342.497C208.303,342.497 169.497,303.697 169.497,256.002C169.497,208.303 208.3,169.5 255.998,169.5C303.697,169.5 342.5,208.303 342.5,256.002C342.5,303.697 303.694,342.497 255.998,342.497Z" style="fill:rgb(98,159,244);fill-rule:nonzero;"/>
        <path d="M393.46,85.557C384.708,85.557 376.11,89.1 369.929,95.309C363.718,101.487 360.147,110.087 360.147,118.87C360.147,127.625 363.721,136.223 369.929,142.431C376.107,148.609 384.708,152.183 393.46,152.183C402.243,152.183 410.813,148.609 417.022,142.431C423.23,136.223 426.773,127.622 426.773,118.87C426.773,110.087 423.23,101.487 417.022,95.309C410.843,89.1 402.243,85.557 393.46,85.557Z" style="fill:rgb(98,159,244);fill-rule:nonzero;"/>
    </g>
</svg>
